<?xml version="1.0" encoding="utf-8"?>
<!-- Generator: Adobe Illustrator 26.3.1, SVG Export Plug-In . SVG Version: 6.00 Build 0)  -->
<svg version="1.1" id="Layer_1" xmlns="http://www.w3.org/2000/svg" xmlns:xlink="http://www.w3.org/1999/xlink" x="0px" y="0px"
	 viewBox="0 0 1750.36 361.97" style="enable-background:new 0 0 1750.36 361.97;" xml:space="preserve">
<style type="text/css">
	.st0{fill:#32323E;}
	.st1{fill:#763DFF;}
</style>
<g>
	<g>
		<path class="st0" d="M613.72,105.1c-40.17,0-64.15,20.6-64.15,55.11v46.05c0,34.33,23.98,54.83,64.15,54.83
			c40.35,0,64.44-20.5,64.44-54.83v-46.05C678.15,125.71,654.06,105.1,613.72,105.1z M576.44,159.93
			c0-18.92,13.94-30.21,37.27-30.21c23.52,0,37.56,11.29,37.56,30.21v46.34c0,18.92-14.04,30.21-37.56,30.21
			c-23.34,0-37.27-11.29-37.27-30.21V159.93z"/>
		<path class="st0" d="M770.52,105.1c-20.3,0-37.89,2.77-52.31,8.26c-9.29,3.77-11.56,7.09-11.56,16.91v166.34
			c0,5.36,2.2,7.65,7.36,7.65h11.87c5.86,0,7.65-1.79,7.65-7.65v-42.79c14.39,4.9,26.13,7.28,35.86,7.28
			c40.51,0,61.05-19.68,61.05-58.51v-39.84C830.44,124.5,810.28,105.1,770.52,105.1z M733.53,139.31c0-3,0.34-3.84,3.61-5.1
			c9.62-2.83,19.33-4.2,29.7-4.2c24.17,0,36.43,11.3,36.43,33.6v38.14c0,23.18-11.73,34.45-35.86,34.45
			c-8.64,0-19.72-2.32-33.89-7.1V139.31z"/>
		<path class="st0" d="M918.85,105.1c-41.74,0-64.72,21.78-64.72,61.33v35.03c0,38.46,22.58,59.64,63.59,59.64
			c29.73,0,50.42-9.94,61.48-29.5c1.72-2.67,2.32-5.09,1.77-7.19c-0.53-2.01-2.09-3.72-4.64-5.07l-7.56-3.92
			c-5.06-3.28-8.48-2.49-12.24,2.83c-7.43,12.65-20.38,19.07-38.52,19.07c-23.85,0-36.99-11.73-36.99-33.03V191.6h91.24
			c7.41,0,11.32-3.72,11.32-10.76v-16.39C983.57,127.29,959.37,105.1,918.85,105.1z M881.01,163.04c0-22.4,13.44-34.73,37.84-34.73
			s37.84,12.34,37.84,34.73v7.32h-75.68V163.04z"/>
		<path class="st0" d="M1075.37,105.1c-20.68,0-38.95,3.25-54.3,9.67c-8.95,3.75-11.27,7.17-11.27,16.62v117.82
			c0,5.36,2.2,7.65,7.37,7.65h11.86c5.86,0,7.65-1.79,7.65-7.65V139.31c0-2.19,0.9-3.55,2.79-4.26c10.32-3.35,21.26-5.05,32.51-5.05
			c22.86,0,34.45,11.02,34.45,32.75v86.46c0,5.58,2.07,7.65,7.65,7.65h11.87c5.58,0,7.65-2.07,7.65-7.65v-87.31
			C1133.6,124.22,1114.01,105.1,1075.37,105.1z"/>
		<path class="st0" d="M1274.05,113.93c-13.3-5.94-29.58-8.83-49.78-8.83c-41.82,0-63.02,19.97-63.02,59.35v39.84
			c0,37.16,20.04,56.81,57.94,56.81c11.84,0,24.95-2.54,38.97-7.54v43.05c0,5.58,2.07,7.65,7.65,7.65h11.86
			c5.17,0,7.37-2.29,7.37-7.65V130.27C1285.04,120.39,1283.19,117.64,1274.05,113.93z M1222.86,236.2
			c-22.86,0-34.45-11.02-34.45-32.75V165.3c0-23.42,12.73-35.3,37.84-35.3c9.51,0,18.67,1.37,27.94,4.18
			c3.5,1.35,3.97,2.25,3.97,5.12v89.77C1243.05,233.8,1231.17,236.2,1222.86,236.2z"/>
		<path class="st0" d="M1433.06,109.34h-11.59c-5.57,0-7.64,2.07-7.64,7.65v108.78c0,2.69-1.13,4.4-3.62,5.67
			c-10.79,3.21-21.15,4.77-31.68,4.77c-23.05,0-34.73-11.02-34.73-32.75v-86.46c0-5.36-2.2-7.65-7.36-7.65h-11.87
			c-5.86,0-7.65,1.79-7.65,7.65v87.31c0,37.7,19.59,56.81,58.22,56.81c19.27,0,37.02-3.16,54.29-9.67
			c8.95-3.76,11.27-7.17,11.27-16.62V116.99C1440.71,111.12,1438.93,109.34,1433.06,109.34z"/>
		<path class="st0" d="M1539.29,105.1c-11.87,0-24.98,2.26-38.97,6.74V68.46c0-5.86-1.79-7.65-7.65-7.65h-11.87
			c-5.16,0-7.36,2.29-7.36,7.65v167.47c0,9.42,1.74,12.01,10.98,16.34c13.68,5.86,30.43,8.83,49.79,8.83
			c41.82,0,63.02-20.07,63.02-59.64v-39.55C1597.24,124.74,1577.2,105.1,1539.29,105.1z M1500.33,137.09
			c12.87-4.7,24.74-7.09,35.3-7.09c22.86,0,34.45,11.02,34.45,32.75v37.86c0,23.94-12.28,35.58-37.55,35.58
			c-11.3,0-20.98-1.5-28.83-4.48c-2.17-0.72-3.36-2.34-3.36-4.55V137.09z"/>
		<path class="st0" d="M1739.05,191.6c7.41,0,11.32-3.72,11.32-10.76v-16.39c0-37.16-24.2-59.35-64.72-59.35
			c-41.74,0-64.72,21.78-64.72,61.33v35.03c0,38.46,22.58,59.64,63.59,59.64c29.73,0,50.42-9.94,61.48-29.5
			c1.72-2.67,2.32-5.09,1.77-7.19c-0.53-2.01-2.09-3.72-4.64-5.07l-7.56-3.92c-5.06-3.28-8.48-2.49-12.24,2.83
			c-7.43,12.65-20.38,19.07-38.52,19.07c-23.85,0-36.99-11.73-36.99-33.03V191.6H1739.05z M1685.64,128.31
			c24.4,0,37.84,12.34,37.84,34.73v7.32h-75.68v-7.32C1647.8,140.64,1661.24,128.31,1685.64,128.31z"/>
	</g>
	<path class="st1" d="M408.24,153.89L335.03,27.1C325.35,10.33,307.46,0,288.1,0H141.7c-19.36,0-37.25,10.33-46.93,27.1
		l-73.2,126.79c-9.68,16.77-9.68,37.43,0,54.19l73.2,126.79c9.68,16.77,27.57,27.1,46.93,27.1h164.83l0,0
		c12.54-0.05,22.69-10.22,22.69-22.77c0-3.72-0.93-7.2-2.51-10.3l-82.71-142.31c-2.01-3.46-5.72-5.59-9.72-5.59h-57.62
		c-3.86,0-6.26,4.18-4.32,7.51l57.16,98.44c1.94,3.34-0.47,7.52-4.33,7.52h-60.58c-9.4,0-18.09-5.02-22.79-13.16l-50.32-87.16
		c-4.7-8.14-4.7-18.18,0-26.32l50.32-87.16c4.7-8.14,13.39-13.16,22.79-13.16h100.64c9.4,0,18.09,5.02,22.79,13.16l50.32,87.16
		c4.7,8.14,4.7,18.18,0,26.32l-16.64,28.83c-3.29,5.69-3.28,12.71,0.03,18.39l28.04,48.24c2.55,4.39,8.89,4.38,11.43-0.02
		l47.06-81.5C417.92,191.31,417.92,170.65,408.24,153.89z"/>
</g>
</svg>
